<mxfile host="app.diagrams.net" modified="2022-12-14T06:00:14.343Z" agent="5.0 (Windows NT 10.0; Win64; x64) AppleWebKit/537.36 (KHTML, like Gecko) Chrome/108.0.0.0 Safari/537.36" etag="SVTzwNjRc2m94V4ATrPM" version="20.5.3" type="github">
  <diagram id="4vUD-eFAPrxCVfN6HzS1" name="第 1 页">
    <mxGraphModel dx="1185" dy="662" grid="1" gridSize="10" guides="1" tooltips="1" connect="1" arrows="1" fold="1" page="1" pageScale="1" pageWidth="827" pageHeight="1169" math="0" shadow="0">
      <root>
        <mxCell id="0" />
        <mxCell id="1" parent="0" />
        <mxCell id="TutCl6MzEEco9euTKRxC-135" value="" style="rounded=0;whiteSpace=wrap;html=1;dashed=1;" vertex="1" parent="1">
          <mxGeometry x="270" y="600" width="960" height="125" as="geometry" />
        </mxCell>
        <mxCell id="TutCl6MzEEco9euTKRxC-112" value="" style="rounded=0;whiteSpace=wrap;html=1;dashed=1;" vertex="1" parent="1">
          <mxGeometry x="270" y="737" width="960" height="80" as="geometry" />
        </mxCell>
        <mxCell id="TutCl6MzEEco9euTKRxC-100" value="" style="rounded=0;whiteSpace=wrap;html=1;dashed=1;" vertex="1" parent="1">
          <mxGeometry x="270" y="835" width="960" height="80" as="geometry" />
        </mxCell>
        <mxCell id="TutCl6MzEEco9euTKRxC-79" value="" style="rounded=0;whiteSpace=wrap;html=1;dashed=1;" vertex="1" parent="1">
          <mxGeometry x="270" y="930" width="960" height="290" as="geometry" />
        </mxCell>
        <mxCell id="TutCl6MzEEco9euTKRxC-42" style="edgeStyle=orthogonalEdgeStyle;rounded=0;orthogonalLoop=1;jettySize=auto;html=1;exitX=0.75;exitY=0;exitDx=0;exitDy=0;entryX=0.5;entryY=0;entryDx=0;entryDy=0;dashed=1;strokeColor=default;" edge="1" parent="1" source="TutCl6MzEEco9euTKRxC-1" target="TutCl6MzEEco9euTKRxC-16">
          <mxGeometry relative="1" as="geometry">
            <Array as="points">
              <mxPoint x="590" y="50" />
              <mxPoint x="765" y="50" />
            </Array>
          </mxGeometry>
        </mxCell>
        <mxCell id="TutCl6MzEEco9euTKRxC-44" value="工单信息初始化+触达+告警" style="edgeLabel;html=1;align=center;verticalAlign=middle;resizable=0;points=[];" vertex="1" connectable="0" parent="TutCl6MzEEco9euTKRxC-42">
          <mxGeometry x="-0.221" y="1" relative="1" as="geometry">
            <mxPoint x="39" y="1" as="offset" />
          </mxGeometry>
        </mxCell>
        <mxCell id="TutCl6MzEEco9euTKRxC-1" value="trackflow&lt;br&gt;工单记录表" style="rounded=1;whiteSpace=wrap;html=1;fillColor=#f5f5f5;fontColor=#333333;strokeColor=#666666;" vertex="1" parent="1">
          <mxGeometry x="500" y="150" width="120" height="60" as="geometry" />
        </mxCell>
        <mxCell id="TutCl6MzEEco9euTKRxC-9" style="edgeStyle=orthogonalEdgeStyle;rounded=0;orthogonalLoop=1;jettySize=auto;html=1;exitX=0.5;exitY=0;exitDx=0;exitDy=0;entryX=0;entryY=0.5;entryDx=0;entryDy=0;dashed=1;" edge="1" parent="1" source="TutCl6MzEEco9euTKRxC-2" target="TutCl6MzEEco9euTKRxC-5">
          <mxGeometry relative="1" as="geometry" />
        </mxCell>
        <mxCell id="TutCl6MzEEco9euTKRxC-13" value="上报" style="edgeLabel;html=1;align=center;verticalAlign=middle;resizable=0;points=[];" vertex="1" connectable="0" parent="TutCl6MzEEco9euTKRxC-9">
          <mxGeometry x="-0.3979" y="1" relative="1" as="geometry">
            <mxPoint as="offset" />
          </mxGeometry>
        </mxCell>
        <mxCell id="TutCl6MzEEco9euTKRxC-39" style="edgeStyle=orthogonalEdgeStyle;rounded=0;orthogonalLoop=1;jettySize=auto;html=1;exitX=0.5;exitY=0;exitDx=0;exitDy=0;entryX=0;entryY=0.5;entryDx=0;entryDy=0;dashed=1;strokeColor=default;" edge="1" parent="1" source="TutCl6MzEEco9euTKRxC-2" target="TutCl6MzEEco9euTKRxC-37">
          <mxGeometry relative="1" as="geometry" />
        </mxCell>
        <mxCell id="TutCl6MzEEco9euTKRxC-2" value="业务系统" style="ellipse;whiteSpace=wrap;html=1;aspect=fixed;" vertex="1" parent="1">
          <mxGeometry x="298" y="151" width="65" height="65" as="geometry" />
        </mxCell>
        <mxCell id="TutCl6MzEEco9euTKRxC-11" style="edgeStyle=orthogonalEdgeStyle;rounded=0;orthogonalLoop=1;jettySize=auto;html=1;exitX=1;exitY=0.75;exitDx=0;exitDy=0;entryX=0.25;entryY=1;entryDx=0;entryDy=0;" edge="1" parent="1" source="TutCl6MzEEco9euTKRxC-15" target="TutCl6MzEEco9euTKRxC-1">
          <mxGeometry relative="1" as="geometry">
            <mxPoint x="280" y="300" as="sourcePoint" />
          </mxGeometry>
        </mxCell>
        <mxCell id="TutCl6MzEEco9euTKRxC-14" value="创建工单" style="edgeLabel;html=1;align=center;verticalAlign=middle;resizable=0;points=[];" vertex="1" connectable="0" parent="TutCl6MzEEco9euTKRxC-11">
          <mxGeometry x="-0.3557" y="-1" relative="1" as="geometry">
            <mxPoint as="offset" />
          </mxGeometry>
        </mxCell>
        <mxCell id="TutCl6MzEEco9euTKRxC-5" value="mq" style="rounded=0;whiteSpace=wrap;html=1;" vertex="1" parent="1">
          <mxGeometry x="369" y="70" width="120" height="20" as="geometry" />
        </mxCell>
        <mxCell id="TutCl6MzEEco9euTKRxC-10" style="edgeStyle=orthogonalEdgeStyle;rounded=0;orthogonalLoop=1;jettySize=auto;html=1;exitX=1;exitY=0.5;exitDx=0;exitDy=0;strokeColor=default;dashed=1;entryX=0.25;entryY=0;entryDx=0;entryDy=0;" edge="1" parent="1" source="TutCl6MzEEco9euTKRxC-5" target="TutCl6MzEEco9euTKRxC-1">
          <mxGeometry relative="1" as="geometry">
            <mxPoint x="474" y="44.99999999999994" as="sourcePoint" />
          </mxGeometry>
        </mxCell>
        <mxCell id="TutCl6MzEEco9euTKRxC-12" value="消费" style="edgeLabel;html=1;align=center;verticalAlign=middle;resizable=0;points=[];" vertex="1" connectable="0" parent="TutCl6MzEEco9euTKRxC-10">
          <mxGeometry x="0.3298" y="2" relative="1" as="geometry">
            <mxPoint as="offset" />
          </mxGeometry>
        </mxCell>
        <mxCell id="TutCl6MzEEco9euTKRxC-15" value="" style="shape=actor;whiteSpace=wrap;html=1;" vertex="1" parent="1">
          <mxGeometry x="314" y="260" width="30" height="45" as="geometry" />
        </mxCell>
        <mxCell id="TutCl6MzEEco9euTKRxC-22" style="edgeStyle=orthogonalEdgeStyle;rounded=0;orthogonalLoop=1;jettySize=auto;html=1;exitX=0.5;exitY=1;exitDx=0;exitDy=0;entryX=0.5;entryY=0;entryDx=0;entryDy=0;dashed=1;" edge="1" parent="1" source="TutCl6MzEEco9euTKRxC-16" target="TutCl6MzEEco9euTKRxC-21">
          <mxGeometry relative="1" as="geometry" />
        </mxCell>
        <mxCell id="TutCl6MzEEco9euTKRxC-32" style="edgeStyle=orthogonalEdgeStyle;rounded=0;orthogonalLoop=1;jettySize=auto;html=1;exitX=0.5;exitY=1;exitDx=0;exitDy=0;entryX=0.5;entryY=0;entryDx=0;entryDy=0;strokeColor=default;" edge="1" parent="1" source="TutCl6MzEEco9euTKRxC-16" target="TutCl6MzEEco9euTKRxC-31">
          <mxGeometry relative="1" as="geometry" />
        </mxCell>
        <mxCell id="TutCl6MzEEco9euTKRxC-16" value="" style="shape=actor;whiteSpace=wrap;html=1;" vertex="1" parent="1">
          <mxGeometry x="750" y="157.5" width="30" height="45" as="geometry" />
        </mxCell>
        <mxCell id="TutCl6MzEEco9euTKRxC-30" style="edgeStyle=orthogonalEdgeStyle;rounded=0;orthogonalLoop=1;jettySize=auto;html=1;exitX=0.5;exitY=1;exitDx=0;exitDy=0;strokeColor=default;entryX=1;entryY=0.5;entryDx=0;entryDy=0;" edge="1" parent="1" source="TutCl6MzEEco9euTKRxC-21" target="TutCl6MzEEco9euTKRxC-27">
          <mxGeometry relative="1" as="geometry" />
        </mxCell>
        <mxCell id="TutCl6MzEEco9euTKRxC-21" value="tracktask&lt;br&gt;&lt;span style=&quot;font-size: 11px; background-color: rgb(255, 255, 255);&quot;&gt;批量处理&lt;/span&gt;" style="rounded=1;whiteSpace=wrap;html=1;fillColor=#f5f5f5;fontColor=#333333;strokeColor=#666666;" vertex="1" parent="1">
          <mxGeometry x="820" y="270" width="54" height="43.5" as="geometry" />
        </mxCell>
        <mxCell id="TutCl6MzEEco9euTKRxC-35" style="edgeStyle=orthogonalEdgeStyle;rounded=0;orthogonalLoop=1;jettySize=auto;html=1;exitX=0.5;exitY=1;exitDx=0;exitDy=0;entryX=0.75;entryY=1;entryDx=0;entryDy=0;strokeColor=default;" edge="1" parent="1" source="TutCl6MzEEco9euTKRxC-27" target="TutCl6MzEEco9euTKRxC-1">
          <mxGeometry relative="1" as="geometry">
            <Array as="points">
              <mxPoint x="770" y="390" />
              <mxPoint x="590" y="390" />
            </Array>
          </mxGeometry>
        </mxCell>
        <mxCell id="TutCl6MzEEco9euTKRxC-27" value="oplogic&lt;br&gt;操作类型" style="rounded=1;whiteSpace=wrap;html=1;" vertex="1" parent="1">
          <mxGeometry x="740" y="330" width="60" height="50" as="geometry" />
        </mxCell>
        <mxCell id="TutCl6MzEEco9euTKRxC-33" style="edgeStyle=orthogonalEdgeStyle;rounded=0;orthogonalLoop=1;jettySize=auto;html=1;exitX=0.5;exitY=1;exitDx=0;exitDy=0;entryX=0;entryY=0.5;entryDx=0;entryDy=0;strokeColor=default;" edge="1" parent="1" source="TutCl6MzEEco9euTKRxC-31" target="TutCl6MzEEco9euTKRxC-27">
          <mxGeometry relative="1" as="geometry" />
        </mxCell>
        <mxCell id="TutCl6MzEEco9euTKRxC-31" value="逐单处理" style="rounded=1;whiteSpace=wrap;html=1;" vertex="1" parent="1">
          <mxGeometry x="660" y="270" width="54" height="43.5" as="geometry" />
        </mxCell>
        <mxCell id="TutCl6MzEEco9euTKRxC-36" value="trackconfig&lt;br&gt;工单配置" style="rounded=1;whiteSpace=wrap;html=1;fillColor=#f5f5f5;fontColor=#333333;strokeColor=#666666;" vertex="1" parent="1">
          <mxGeometry x="910" y="155" width="60" height="50" as="geometry" />
        </mxCell>
        <mxCell id="TutCl6MzEEco9euTKRxC-38" style="edgeStyle=orthogonalEdgeStyle;rounded=0;orthogonalLoop=1;jettySize=auto;html=1;exitX=1;exitY=0.25;exitDx=0;exitDy=0;entryX=0.25;entryY=0;entryDx=0;entryDy=0;strokeColor=default;dashed=1;" edge="1" parent="1" source="TutCl6MzEEco9euTKRxC-37" target="TutCl6MzEEco9euTKRxC-1">
          <mxGeometry relative="1" as="geometry" />
        </mxCell>
        <mxCell id="TutCl6MzEEco9euTKRxC-37" value="死信" style="rounded=0;whiteSpace=wrap;html=1;" vertex="1" parent="1">
          <mxGeometry x="369" y="40" width="120" height="20" as="geometry" />
        </mxCell>
        <mxCell id="TutCl6MzEEco9euTKRxC-41" value="" style="endArrow=classic;html=1;rounded=0;dashed=1;strokeColor=default;" edge="1" parent="1">
          <mxGeometry width="50" height="50" relative="1" as="geometry">
            <mxPoint x="900" y="180" as="sourcePoint" />
            <mxPoint x="870" y="180" as="targetPoint" />
          </mxGeometry>
        </mxCell>
        <mxCell id="TutCl6MzEEco9euTKRxC-43" value="定时任务" style="rounded=1;whiteSpace=wrap;html=1;" vertex="1" parent="1">
          <mxGeometry x="566" y="90" width="50" height="41.67" as="geometry" />
        </mxCell>
        <mxCell id="TutCl6MzEEco9euTKRxC-46" value="" style="rounded=0;whiteSpace=wrap;html=1;" vertex="1" parent="1">
          <mxGeometry x="335" y="960" width="190" height="230" as="geometry" />
        </mxCell>
        <mxCell id="TutCl6MzEEco9euTKRxC-51" value="UI Schema标准" style="rounded=0;whiteSpace=wrap;html=1;" vertex="1" parent="1">
          <mxGeometry x="360" y="1010" width="140" height="30" as="geometry" />
        </mxCell>
        <mxCell id="TutCl6MzEEco9euTKRxC-52" value="UI编辑引擎" style="rounded=0;whiteSpace=wrap;html=1;" vertex="1" parent="1">
          <mxGeometry x="360" y="1050" width="140" height="30" as="geometry" />
        </mxCell>
        <mxCell id="TutCl6MzEEco9euTKRxC-53" value="UI交互预览引擎" style="rounded=0;whiteSpace=wrap;html=1;" vertex="1" parent="1">
          <mxGeometry x="360" y="1090" width="140" height="30" as="geometry" />
        </mxCell>
        <mxCell id="TutCl6MzEEco9euTKRxC-54" value="UI事件系统" style="rounded=0;whiteSpace=wrap;html=1;" vertex="1" parent="1">
          <mxGeometry x="360" y="1130" width="140" height="30" as="geometry" />
        </mxCell>
        <mxCell id="TutCl6MzEEco9euTKRxC-60" value="编辑器" style="text;html=1;strokeColor=none;fillColor=none;align=center;verticalAlign=middle;whiteSpace=wrap;rounded=0;" vertex="1" parent="1">
          <mxGeometry x="399" y="960" width="60" height="30" as="geometry" />
        </mxCell>
        <mxCell id="TutCl6MzEEco9euTKRxC-61" value="" style="rounded=0;whiteSpace=wrap;html=1;" vertex="1" parent="1">
          <mxGeometry x="547" y="960" width="190" height="230" as="geometry" />
        </mxCell>
        <mxCell id="TutCl6MzEEco9euTKRxC-62" value="页面容器" style="rounded=0;whiteSpace=wrap;html=1;" vertex="1" parent="1">
          <mxGeometry x="572" y="1010" width="140" height="30" as="geometry" />
        </mxCell>
        <mxCell id="TutCl6MzEEco9euTKRxC-63" value="组件系统" style="rounded=0;whiteSpace=wrap;html=1;" vertex="1" parent="1">
          <mxGeometry x="572" y="1050" width="140" height="30" as="geometry" />
        </mxCell>
        <mxCell id="TutCl6MzEEco9euTKRxC-64" value="插件系统" style="rounded=0;whiteSpace=wrap;html=1;" vertex="1" parent="1">
          <mxGeometry x="572" y="1090" width="140" height="30" as="geometry" />
        </mxCell>
        <mxCell id="TutCl6MzEEco9euTKRxC-65" value="meta表单系统" style="rounded=0;whiteSpace=wrap;html=1;" vertex="1" parent="1">
          <mxGeometry x="573" y="1130" width="140" height="30" as="geometry" />
        </mxCell>
        <mxCell id="TutCl6MzEEco9euTKRxC-66" value="模块化" style="text;html=1;strokeColor=none;fillColor=none;align=center;verticalAlign=middle;whiteSpace=wrap;rounded=0;" vertex="1" parent="1">
          <mxGeometry x="611" y="960" width="60" height="30" as="geometry" />
        </mxCell>
        <mxCell id="TutCl6MzEEco9euTKRxC-67" value="" style="rounded=0;whiteSpace=wrap;html=1;" vertex="1" parent="1">
          <mxGeometry x="760" y="960" width="190" height="230" as="geometry" />
        </mxCell>
        <mxCell id="TutCl6MzEEco9euTKRxC-68" value="DSL Schema标准" style="rounded=0;whiteSpace=wrap;html=1;" vertex="1" parent="1">
          <mxGeometry x="785" y="1010" width="140" height="30" as="geometry" />
        </mxCell>
        <mxCell id="TutCl6MzEEco9euTKRxC-69" value="逻辑编排引擎" style="rounded=0;whiteSpace=wrap;html=1;" vertex="1" parent="1">
          <mxGeometry x="785" y="1050" width="140" height="30" as="geometry" />
        </mxCell>
        <mxCell id="TutCl6MzEEco9euTKRxC-70" value="动作系统" style="rounded=0;whiteSpace=wrap;html=1;" vertex="1" parent="1">
          <mxGeometry x="785" y="1090" width="140" height="30" as="geometry" />
        </mxCell>
        <mxCell id="TutCl6MzEEco9euTKRxC-71" value="参数变量系统" style="rounded=0;whiteSpace=wrap;html=1;" vertex="1" parent="1">
          <mxGeometry x="786" y="1130" width="140" height="30" as="geometry" />
        </mxCell>
        <mxCell id="TutCl6MzEEco9euTKRxC-72" value="流程引擎" style="text;html=1;strokeColor=none;fillColor=none;align=center;verticalAlign=middle;whiteSpace=wrap;rounded=0;" vertex="1" parent="1">
          <mxGeometry x="824" y="960" width="60" height="30" as="geometry" />
        </mxCell>
        <mxCell id="TutCl6MzEEco9euTKRxC-73" value="" style="rounded=0;whiteSpace=wrap;html=1;" vertex="1" parent="1">
          <mxGeometry x="974" y="960" width="190" height="230" as="geometry" />
        </mxCell>
        <mxCell id="TutCl6MzEEco9euTKRxC-74" value="打包构建系统" style="rounded=0;whiteSpace=wrap;html=1;" vertex="1" parent="1">
          <mxGeometry x="999" y="1010" width="140" height="30" as="geometry" />
        </mxCell>
        <mxCell id="TutCl6MzEEco9euTKRxC-75" value="解析渲染引擎" style="rounded=0;whiteSpace=wrap;html=1;" vertex="1" parent="1">
          <mxGeometry x="999" y="1050" width="140" height="30" as="geometry" />
        </mxCell>
        <mxCell id="TutCl6MzEEco9euTKRxC-76" value="多环境测试" style="rounded=0;whiteSpace=wrap;html=1;" vertex="1" parent="1">
          <mxGeometry x="999" y="1090" width="140" height="30" as="geometry" />
        </mxCell>
        <mxCell id="TutCl6MzEEco9euTKRxC-77" value="监控告警" style="rounded=0;whiteSpace=wrap;html=1;" vertex="1" parent="1">
          <mxGeometry x="1000" y="1130" width="140" height="30" as="geometry" />
        </mxCell>
        <mxCell id="TutCl6MzEEco9euTKRxC-78" value="生产运行" style="text;html=1;strokeColor=none;fillColor=none;align=center;verticalAlign=middle;whiteSpace=wrap;rounded=0;" vertex="1" parent="1">
          <mxGeometry x="1038" y="960" width="60" height="30" as="geometry" />
        </mxCell>
        <mxCell id="TutCl6MzEEco9euTKRxC-105" value="" style="group" vertex="1" connectable="0" parent="1">
          <mxGeometry x="335" y="860" width="835" height="30" as="geometry" />
        </mxCell>
        <mxCell id="TutCl6MzEEco9euTKRxC-87" value="资源发放系统" style="rounded=0;whiteSpace=wrap;html=1;" vertex="1" parent="TutCl6MzEEco9euTKRxC-105">
          <mxGeometry x="354.85372288077275" width="103.59357333610426" height="30" as="geometry" />
        </mxCell>
        <mxCell id="TutCl6MzEEco9euTKRxC-88" value="支付系统" style="rounded=0;whiteSpace=wrap;html=1;" vertex="1" parent="TutCl6MzEEco9euTKRxC-105">
          <mxGeometry x="116.8847723701921" width="103.59357333610426" height="30" as="geometry" />
        </mxCell>
        <mxCell id="TutCl6MzEEco9euTKRxC-89" value="积分系统" style="rounded=0;whiteSpace=wrap;html=1;" vertex="1" parent="TutCl6MzEEco9euTKRxC-105">
          <mxGeometry width="103.59357333610426" height="30" as="geometry" />
        </mxCell>
        <mxCell id="TutCl6MzEEco9euTKRxC-98" value="优惠券系统" style="rounded=0;whiteSpace=wrap;html=1;" vertex="1" parent="TutCl6MzEEco9euTKRxC-105">
          <mxGeometry x="474.24343049779253" width="103.59357333610426" height="30" as="geometry" />
        </mxCell>
        <mxCell id="TutCl6MzEEco9euTKRxC-99" value="..." style="rounded=0;whiteSpace=wrap;html=1;" vertex="1" parent="TutCl6MzEEco9euTKRxC-105">
          <mxGeometry x="591.84116145959" width="103.59357333610426" height="30" as="geometry" />
        </mxCell>
        <mxCell id="TutCl6MzEEco9euTKRxC-101" value="数据能力" style="rounded=0;whiteSpace=wrap;html=1;" vertex="1" parent="TutCl6MzEEco9euTKRxC-105">
          <mxGeometry x="731.4064266638957" width="103.59357333610426" height="30" as="geometry" />
        </mxCell>
        <mxCell id="TutCl6MzEEco9euTKRxC-104" value="订单系统" style="rounded=0;whiteSpace=wrap;html=1;" vertex="1" parent="TutCl6MzEEco9euTKRxC-105">
          <mxGeometry x="236.0443119001111" width="103.59357333610426" height="30" as="geometry" />
        </mxCell>
        <mxCell id="TutCl6MzEEco9euTKRxC-106" value="&lt;font style=&quot;font-size: 17px;&quot;&gt;&lt;b&gt;+&lt;/b&gt;&lt;/font&gt;" style="text;html=1;strokeColor=none;fillColor=none;align=center;verticalAlign=middle;whiteSpace=wrap;rounded=0;dashed=1;" vertex="1" parent="1">
          <mxGeometry x="1032" y="862" width="31" height="30" as="geometry" />
        </mxCell>
        <mxCell id="TutCl6MzEEco9euTKRxC-110" value="" style="group" vertex="1" connectable="0" parent="1">
          <mxGeometry x="340" y="760" width="830" height="30" as="geometry" />
        </mxCell>
        <mxCell id="TutCl6MzEEco9euTKRxC-81" value="通用抽码系统" style="rounded=0;whiteSpace=wrap;html=1;" vertex="1" parent="TutCl6MzEEco9euTKRxC-110">
          <mxGeometry x="238.50137488542623" width="106.50779101741523" height="30" as="geometry" />
        </mxCell>
        <mxCell id="TutCl6MzEEco9euTKRxC-82" value="组队系统" style="rounded=0;whiteSpace=wrap;html=1;" vertex="1" parent="TutCl6MzEEco9euTKRxC-110">
          <mxGeometry width="106.50779101741523" height="30" as="geometry" />
        </mxCell>
        <mxCell id="TutCl6MzEEco9euTKRxC-83" value="签到系统" style="rounded=0;whiteSpace=wrap;html=1;" vertex="1" parent="TutCl6MzEEco9euTKRxC-110">
          <mxGeometry x="118.68010999083411" width="106.50779101741523" height="30" as="geometry" />
        </mxCell>
        <mxCell id="TutCl6MzEEco9euTKRxC-86" value="任务系统" style="rounded=0;whiteSpace=wrap;html=1;" vertex="1" parent="TutCl6MzEEco9euTKRxC-110">
          <mxGeometry x="478.5242896425298" width="106.50779101741523" height="30" as="geometry" />
        </mxCell>
        <mxCell id="TutCl6MzEEco9euTKRxC-97" value="...." style="rounded=0;whiteSpace=wrap;html=1;" vertex="1" parent="TutCl6MzEEco9euTKRxC-110">
          <mxGeometry x="604.8120989917508" width="106.50779101741523" height="30" as="geometry" />
        </mxCell>
        <mxCell id="TutCl6MzEEco9euTKRxC-107" value="排行榜系统" style="rounded=0;whiteSpace=wrap;html=1;" vertex="1" parent="TutCl6MzEEco9euTKRxC-110">
          <mxGeometry x="358.3226397800184" width="106.50779101741523" height="30" as="geometry" />
        </mxCell>
        <mxCell id="TutCl6MzEEco9euTKRxC-109" value="信息收集系统" style="rounded=0;whiteSpace=wrap;html=1;" vertex="1" parent="TutCl6MzEEco9euTKRxC-110">
          <mxGeometry x="723.4922089825848" width="106.50779101741523" height="30" as="geometry" />
        </mxCell>
        <mxCell id="TutCl6MzEEco9euTKRxC-138" value="" style="group" vertex="1" connectable="0" parent="1">
          <mxGeometry x="340" y="480" width="830" height="30" as="geometry" />
        </mxCell>
        <mxCell id="TutCl6MzEEco9euTKRxC-136" value="" style="group" vertex="1" connectable="0" parent="TutCl6MzEEco9euTKRxC-138">
          <mxGeometry width="709.1941241879792" height="30" as="geometry" />
        </mxCell>
        <mxCell id="TutCl6MzEEco9euTKRxC-90" value="APP运营" style="rounded=0;whiteSpace=wrap;html=1;" vertex="1" parent="TutCl6MzEEco9euTKRxC-136">
          <mxGeometry width="104.29325355705576" height="30" as="geometry" />
        </mxCell>
        <mxCell id="TutCl6MzEEco9euTKRxC-91" value="游戏运营" style="rounded=0;whiteSpace=wrap;html=1;" vertex="1" parent="TutCl6MzEEco9euTKRxC-136">
          <mxGeometry x="119.93724159061414" width="104.29325355705576" height="30" as="geometry" />
        </mxCell>
        <mxCell id="TutCl6MzEEco9euTKRxC-92" value="新游运营" style="rounded=0;whiteSpace=wrap;html=1;" vertex="1" parent="TutCl6MzEEco9euTKRxC-136">
          <mxGeometry x="238.3845795589846" width="104.29325355705576" height="30" as="geometry" />
        </mxCell>
        <mxCell id="TutCl6MzEEco9euTKRxC-93" value="商业化运营" style="rounded=0;whiteSpace=wrap;html=1;" vertex="1" parent="TutCl6MzEEco9euTKRxC-136">
          <mxGeometry x="363.5364838274515" width="104.29325355705576" height="30" as="geometry" />
        </mxCell>
        <mxCell id="TutCl6MzEEco9euTKRxC-94" value="内置运营" style="rounded=0;whiteSpace=wrap;html=1;" vertex="1" parent="TutCl6MzEEco9euTKRxC-136">
          <mxGeometry x="484.2186772291875" width="104.29325355705576" height="30" as="geometry" />
        </mxCell>
        <mxCell id="TutCl6MzEEco9euTKRxC-95" value="弹窗广告" style="rounded=0;whiteSpace=wrap;html=1;" vertex="1" parent="TutCl6MzEEco9euTKRxC-136">
          <mxGeometry x="604.9008706309235" width="104.29325355705576" height="30" as="geometry" />
        </mxCell>
        <mxCell id="TutCl6MzEEco9euTKRxC-137" value="..." style="rounded=0;whiteSpace=wrap;html=1;" vertex="1" parent="TutCl6MzEEco9euTKRxC-138">
          <mxGeometry x="725.7067464429443" width="104.29325355705576" height="30" as="geometry" />
        </mxCell>
        <mxCell id="TutCl6MzEEco9euTKRxC-139" value="" style="group" vertex="1" connectable="0" parent="1">
          <mxGeometry x="342" y="627" width="828" height="75" as="geometry" />
        </mxCell>
        <mxCell id="TutCl6MzEEco9euTKRxC-84" value="组队" style="rounded=0;whiteSpace=wrap;html=1;" vertex="1" parent="TutCl6MzEEco9euTKRxC-139">
          <mxGeometry width="60.511571254567606" height="30" as="geometry" />
        </mxCell>
        <mxCell id="TutCl6MzEEco9euTKRxC-113" value="拼团" style="rounded=0;whiteSpace=wrap;html=1;" vertex="1" parent="TutCl6MzEEco9euTKRxC-139">
          <mxGeometry x="78.66504263093789" width="60.511571254567606" height="30" as="geometry" />
        </mxCell>
        <mxCell id="TutCl6MzEEco9euTKRxC-114" value="赛事" style="rounded=0;whiteSpace=wrap;html=1;" vertex="1" parent="TutCl6MzEEco9euTKRxC-139">
          <mxGeometry x="157.33008526187578" width="60.511571254567606" height="30" as="geometry" />
        </mxCell>
        <mxCell id="TutCl6MzEEco9euTKRxC-115" value="邀请" style="rounded=0;whiteSpace=wrap;html=1;" vertex="1" parent="TutCl6MzEEco9euTKRxC-139">
          <mxGeometry x="311.63459196102315" width="60.511571254567606" height="30" as="geometry" />
        </mxCell>
        <mxCell id="TutCl6MzEEco9euTKRxC-116" value="裂变" style="rounded=0;whiteSpace=wrap;html=1;" vertex="1" parent="TutCl6MzEEco9euTKRxC-139">
          <mxGeometry x="389.29110840438494" width="60.511571254567606" height="30" as="geometry" />
        </mxCell>
        <mxCell id="TutCl6MzEEco9euTKRxC-117" value="签到" style="rounded=0;whiteSpace=wrap;html=1;" vertex="1" parent="TutCl6MzEEco9euTKRxC-139">
          <mxGeometry x="464.93057247259446" width="60.511571254567606" height="30" as="geometry" />
        </mxCell>
        <mxCell id="TutCl6MzEEco9euTKRxC-118" value="任务" style="rounded=0;whiteSpace=wrap;html=1;" vertex="1" parent="TutCl6MzEEco9euTKRxC-139">
          <mxGeometry x="541.5785627283801" width="60.511571254567606" height="30" as="geometry" />
        </mxCell>
        <mxCell id="TutCl6MzEEco9euTKRxC-119" value="报名" style="rounded=0;whiteSpace=wrap;html=1;" vertex="1" parent="TutCl6MzEEco9euTKRxC-139">
          <mxGeometry x="157.33008526187578" y="45" width="60.511571254567606" height="30" as="geometry" />
        </mxCell>
        <mxCell id="TutCl6MzEEco9euTKRxC-120" value="幸运签" style="rounded=0;whiteSpace=wrap;html=1;" vertex="1" parent="TutCl6MzEEco9euTKRxC-139">
          <mxGeometry x="541.5785627283801" y="45" width="60.511571254567606" height="30" as="geometry" />
        </mxCell>
        <mxCell id="TutCl6MzEEco9euTKRxC-121" value="直购" style="rounded=0;whiteSpace=wrap;html=1;" vertex="1" parent="TutCl6MzEEco9euTKRxC-139">
          <mxGeometry x="692.857490864799" width="60.511571254567606" height="30" as="geometry" />
        </mxCell>
        <mxCell id="TutCl6MzEEco9euTKRxC-122" value="团购" style="rounded=0;whiteSpace=wrap;html=1;" vertex="1" parent="TutCl6MzEEco9euTKRxC-139">
          <mxGeometry x="767.4884287454325" width="60.511571254567606" height="30" as="geometry" />
        </mxCell>
        <mxCell id="TutCl6MzEEco9euTKRxC-123" value="PK" style="rounded=0;whiteSpace=wrap;html=1;" vertex="1" parent="TutCl6MzEEco9euTKRxC-139">
          <mxGeometry x="233.9780755176614" width="60.511571254567606" height="30" as="geometry" />
        </mxCell>
        <mxCell id="TutCl6MzEEco9euTKRxC-124" value="分享" style="rounded=0;whiteSpace=wrap;html=1;" vertex="1" parent="TutCl6MzEEco9euTKRxC-139">
          <mxGeometry x="311.63459196102315" y="45" width="60.511571254567606" height="30" as="geometry" />
        </mxCell>
        <mxCell id="TutCl6MzEEco9euTKRxC-125" value="问卷" style="rounded=0;whiteSpace=wrap;html=1;" vertex="1" parent="TutCl6MzEEco9euTKRxC-139">
          <mxGeometry x="389.29110840438494" y="45" width="60.511571254567606" height="30" as="geometry" />
        </mxCell>
        <mxCell id="TutCl6MzEEco9euTKRxC-126" value="兑换" style="rounded=0;whiteSpace=wrap;html=1;" vertex="1" parent="TutCl6MzEEco9euTKRxC-139">
          <mxGeometry x="464.93057247259446" y="45" width="60.511571254567606" height="30" as="geometry" />
        </mxCell>
        <mxCell id="TutCl6MzEEco9euTKRxC-127" value="集卡" style="rounded=0;whiteSpace=wrap;html=1;" vertex="1" parent="TutCl6MzEEco9euTKRxC-139">
          <mxGeometry y="45" width="60.511571254567606" height="30" as="geometry" />
        </mxCell>
        <mxCell id="TutCl6MzEEco9euTKRxC-128" value="集碎片" style="rounded=0;whiteSpace=wrap;html=1;" vertex="1" parent="TutCl6MzEEco9euTKRxC-139">
          <mxGeometry x="78.66504263093789" y="45" width="60.511571254567606" height="30" as="geometry" />
        </mxCell>
        <mxCell id="TutCl6MzEEco9euTKRxC-129" value="代币" style="rounded=0;whiteSpace=wrap;html=1;" vertex="1" parent="TutCl6MzEEco9euTKRxC-139">
          <mxGeometry x="692.857490864799" y="45" width="60.511571254567606" height="30" as="geometry" />
        </mxCell>
        <mxCell id="TutCl6MzEEco9euTKRxC-130" value="..." style="rounded=0;whiteSpace=wrap;html=1;" vertex="1" parent="TutCl6MzEEco9euTKRxC-139">
          <mxGeometry x="767.4884287454325" y="45" width="60.511571254567606" height="30" as="geometry" />
        </mxCell>
        <mxCell id="TutCl6MzEEco9euTKRxC-131" value="排行榜" style="rounded=0;whiteSpace=wrap;html=1;" vertex="1" parent="TutCl6MzEEco9euTKRxC-139">
          <mxGeometry x="233.9780755176614" y="45" width="60.511571254567606" height="30" as="geometry" />
        </mxCell>
        <mxCell id="TutCl6MzEEco9euTKRxC-132" value="盲盒" style="rounded=0;whiteSpace=wrap;html=1;" vertex="1" parent="TutCl6MzEEco9euTKRxC-139">
          <mxGeometry x="616.2095006090134" width="60.511571254567606" height="30" as="geometry" />
        </mxCell>
        <mxCell id="TutCl6MzEEco9euTKRxC-133" value="预约" style="rounded=0;whiteSpace=wrap;html=1;" vertex="1" parent="TutCl6MzEEco9euTKRxC-139">
          <mxGeometry x="616.2095006090134" y="45" width="60.511571254567606" height="30" as="geometry" />
        </mxCell>
        <mxCell id="TutCl6MzEEco9euTKRxC-140" value="H5竖屏" style="rounded=0;whiteSpace=wrap;html=1;" vertex="1" parent="1">
          <mxGeometry x="457.3064838274516" y="530" width="104.29325355705576" height="30" as="geometry" />
        </mxCell>
        <mxCell id="TutCl6MzEEco9euTKRxC-141" value="H5横屏" style="rounded=0;whiteSpace=wrap;html=1;" vertex="1" parent="1">
          <mxGeometry x="577.9886772291875" y="530" width="104.29325355705576" height="30" as="geometry" />
        </mxCell>
        <mxCell id="TutCl6MzEEco9euTKRxC-142" value="PC" style="rounded=0;whiteSpace=wrap;html=1;" vertex="1" parent="1">
          <mxGeometry x="698.6708706309234" y="530" width="104.29325355705576" height="30" as="geometry" />
        </mxCell>
        <mxCell id="TutCl6MzEEco9euTKRxC-143" value="QQ大厅" style="rounded=0;whiteSpace=wrap;html=1;" vertex="1" parent="1">
          <mxGeometry x="819.4767464429442" y="530" width="104.29325355705576" height="30" as="geometry" />
        </mxCell>
        <mxCell id="TutCl6MzEEco9euTKRxC-144" value="..." style="rounded=0;whiteSpace=wrap;html=1;" vertex="1" parent="1">
          <mxGeometry x="943.3967464429442" y="530" width="104.29325355705576" height="30" as="geometry" />
        </mxCell>
      </root>
    </mxGraphModel>
  </diagram>
</mxfile>
